<svg width="21" height="18" viewBox="0 0 21 18" fill="none" xmlns="http://www.w3.org/2000/svg">
<path fill-rule="evenodd" clip-rule="evenodd" d="M6.928 0C6.41919 -1.20003e-06 5.91873 0.129412 5.4737 0.37607C5.02866 0.622728 4.65368 0.978524 4.384 1.41L0.304005 7.94C0.105339 8.25786 0 8.62516 0 9C0 9.37484 0.105339 9.74214 0.304005 10.06L4.384 16.59C4.65368 17.0215 5.02866 17.3773 5.4737 17.6239C5.91873 17.8706 6.41919 18 6.928 18H17.82C18.6157 18 19.3787 17.6839 19.9413 17.1213C20.5039 16.5587 20.82 15.7956 20.82 15V3C20.82 2.20435 20.5039 1.44129 19.9413 0.87868C19.3787 0.316071 18.6157 0 17.82 0H6.928ZM15.355 12.536C15.1675 12.7235 14.9132 12.8288 14.648 12.8288C14.3828 12.8288 14.1285 12.7235 13.941 12.536L11.82 10.414L9.699 12.536C9.51136 12.7236 9.25687 12.8291 8.9915 12.8291C8.72614 12.8291 8.47165 12.7236 8.284 12.536C8.09636 12.3484 7.99095 12.0939 7.99095 11.8285C7.99095 11.5631 8.09636 11.3086 8.284 11.121L10.406 9L8.284 6.879C8.09636 6.69136 7.99095 6.43686 7.99095 6.1715C7.99095 5.90614 8.09636 5.65164 8.284 5.464C8.47165 5.27636 8.72614 5.17094 8.9915 5.17094C9.25687 5.17094 9.51136 5.27636 9.699 5.464L11.82 7.586L13.941 5.464C14.0339 5.37116 14.1442 5.29752 14.2656 5.2473C14.3869 5.19708 14.517 5.17125 14.6484 5.1713C14.7797 5.17134 14.9098 5.19726 15.0311 5.24757C15.1524 5.29788 15.2627 5.37159 15.3555 5.4645C15.4483 5.55741 15.522 5.6677 15.5722 5.78907C15.6224 5.91043 15.6483 6.04051 15.6482 6.17185C15.6482 6.3032 15.6222 6.43326 15.5719 6.55459C15.5216 6.67592 15.4479 6.78616 15.355 6.879L13.235 9L15.355 11.121C15.448 11.2139 15.5217 11.3242 15.5721 11.4456C15.6224 11.567 15.6483 11.6971 15.6483 11.8285C15.6483 11.9599 15.6224 12.09 15.5721 12.2114C15.5217 12.3328 15.448 12.4431 15.355 12.536Z" fill="#3C55DC"/>
</svg>
