<svg width="37" height="37" viewBox="0 0 37 37" fill="none" xmlns="http://www.w3.org/2000/svg">
<path d="M17.0024 12.5063V16.7963L15.4874 16.2713C14.7224 16.0013 14.2574 15.7463 14.2574 14.4413C14.2574 13.3763 15.0524 12.5063 16.0274 12.5063H17.0024Z" fill="white"/>
<path d="M21.9974 22.3313C21.9974 23.3963 21.2024 24.2663 20.2274 24.2663H19.2524V19.9763L20.7674 20.5013C21.5324 20.7713 21.9974 21.0263 21.9974 22.3313Z" fill="white"/>
<path d="M24.4124 3.38623H11.8424C6.38241 3.38623 3.12741 6.64123 3.12741 12.1012V24.6712C3.12741 30.1312 6.38241 33.3862 11.8424 33.3862H24.4124C29.8724 33.3862 33.1274 30.1312 33.1274 24.6712V12.1012C33.1274 6.64123 29.8724 3.38623 24.4124 3.38623ZM21.5174 18.3862C22.6874 18.7912 24.2474 19.6462 24.2474 22.3312C24.2474 24.6412 22.4474 26.5162 20.2274 26.5162H19.2524V27.3862C19.2524 28.0012 18.7424 28.5112 18.1274 28.5112C17.5124 28.5112 17.0024 28.0012 17.0024 27.3862V26.5162H16.4624C14.0024 26.5162 12.0074 24.4312 12.0074 21.8812C12.0074 21.2662 12.5024 20.7562 13.1324 20.7562C13.7474 20.7562 14.2574 21.2662 14.2574 21.8812C14.2574 23.2012 15.2474 24.2662 16.4624 24.2662H17.0024V19.1812L14.7374 18.3862C13.5674 17.9812 12.0074 17.1262 12.0074 14.4412C12.0074 12.1312 13.8074 10.2562 16.0274 10.2562H17.0024V9.38623C17.0024 8.77123 17.5124 8.26123 18.1274 8.26123C18.7424 8.26123 19.2524 8.77123 19.2524 9.38623V10.2562H19.7924C22.2524 10.2562 24.2474 12.3412 24.2474 14.8912C24.2474 15.5062 23.7524 16.0162 23.1224 16.0162C22.5074 16.0162 21.9974 15.5062 21.9974 14.8912C21.9974 13.5712 21.0074 12.5062 19.7924 12.5062H19.2524V17.5912L21.5174 18.3862Z" fill="white"/>
</svg>
