<svg width="37" height="37" viewBox="0 0 37 37" fill="none" xmlns="http://www.w3.org/2000/svg">
<path d="M16.2524 7.84822L9.60741 4.56322C6.02241 2.80822 3.08241 4.59322 3.08241 8.52322V30.7832C3.08241 32.4932 4.50741 33.8882 6.24741 33.8882H17.3774C18.2024 33.8882 18.8774 33.2132 18.8774 32.3882V12.0032C18.8774 10.4282 17.6924 8.55322 16.2524 7.84822ZM13.5824 21.5132H8.37741C7.76241 21.5132 7.25241 21.0032 7.25241 20.3882C7.25241 19.7732 7.76241 19.2632 8.37741 19.2632H13.5824C14.1974 19.2632 14.7074 19.7732 14.7074 20.3882C14.7074 21.0032 14.2124 21.5132 13.5824 21.5132ZM13.5824 15.5132H8.37741C7.76241 15.5132 7.25241 15.0032 7.25241 14.3882C7.25241 13.7732 7.76241 13.2632 8.37741 13.2632H13.5824C14.1974 13.2632 14.7074 13.7732 14.7074 14.3882C14.7074 15.0032 14.2124 15.5132 13.5824 15.5132Z" fill="white"/>
<path d="M33.1274 27.9481V30.1381C33.1274 32.2081 31.4474 33.8881 29.3774 33.8881H22.5824C21.7724 33.8881 21.1274 33.2431 21.1274 32.4331V29.1931C22.7324 29.3881 24.4274 28.9231 25.6424 27.9481C26.6624 28.7731 27.9674 29.2681 29.3924 29.2681C30.7874 29.2681 32.0924 28.7731 33.1274 27.9481Z" fill="white"/>
<path d="M33.1274 23.4631V23.4781C33.0074 25.4431 31.4024 27.0181 29.3924 27.0181C27.3074 27.0181 25.6424 25.3231 25.6424 23.2681C25.6424 25.5631 23.5274 27.4081 21.1274 26.9431V18.8881C21.1274 17.9281 22.0124 17.2081 22.9574 17.4181L25.6424 18.0181L26.3624 18.1831L29.4224 18.8731C30.1574 19.0231 30.8324 19.2781 31.4174 19.6531C31.4174 19.6681 31.4324 19.6681 31.4324 19.6681C31.5824 19.7731 31.7324 19.8931 31.8674 20.0281C32.5574 20.7181 33.0074 21.7231 33.1124 23.1931C33.1124 23.2831 33.1274 23.3731 33.1274 23.4631Z" fill="white"/>
</svg>
