<svg width="20" height="20" viewBox="0 0 20 20" fill="none" xmlns="http://www.w3.org/2000/svg">
<path d="M5.60379 2.60379C7.33965 0.867929 8.20757 0 9.2861 0C10.3646 0 11.2326 0.867929 12.9684 2.60379L17.3872 7.02256C19.123 8.75842 19.991 9.62635 19.991 10.7049C19.991 11.7834 19.123 12.6513 17.3872 14.3872C15.6513 16.123 14.7834 16.991 13.7049 16.991C12.6263 16.991 11.7584 16.123 10.0226 14.3872L5.60379 9.96841C3.86793 8.23255 3 7.36462 3 6.2861C3 5.20757 3.86793 4.33965 5.60379 2.60379Z" fill="#344767"/>
<path d="M5.284 11.7699L0.82581 16.2281C0.483366 16.5706 0.312143 16.7418 0.209304 16.9199C-0.0697681 17.4033 -0.0697683 17.9988 0.209305 18.4822C0.312141 18.6603 0.483357 18.8315 0.825784 19.1739C1.16823 19.5164 1.33948 19.6876 1.5176 19.7905C2.00097 20.0696 2.5965 20.0696 3.07987 19.7905C3.25799 19.6876 3.42921 19.5164 3.77166 19.174L8.22984 14.7158L5.284 11.7699Z" fill="#344767"/>
<path d="M6.34466 10.7093L6.34905 10.7049L9.2949 13.6507L9.29051 13.6551L6.34466 10.7093Z" fill="#344767"/>
<path d="M17.6686 5.18261C17.9233 4.7073 17.9153 4.13264 17.6445 3.66359C17.5416 3.48547 17.3704 3.31425 17.028 2.97181C16.6855 2.62936 16.5143 2.45814 16.3362 2.3553C15.8671 2.0845 15.2925 2.07647 14.8172 2.33123L17.6686 5.18261Z" fill="#344767"/>
</svg>
