<svg width="27" height="30" viewBox="0 0 27 30" fill="none" xmlns="http://www.w3.org/2000/svg">
<path d="M13.3855 0.767212C17.2381 0.767212 20.4055 3.79463 20.5663 7.63069H20.5287C20.5332 7.74219 20.5118 7.85323 20.4661 7.95511H20.6905C22.4401 7.95511 24.2721 9.16773 25.0067 12.0951L25.0865 12.4405L26.1919 21.3458C26.9873 27.0257 23.8798 29.4143 19.6408 29.5155L19.3565 29.5188H7.43904C3.13097 29.5188 -0.188738 27.9489 0.541174 21.7322L0.590949 21.3458L1.709 12.4405C2.26032 9.28802 4.11116 8.0446 5.89449 7.95981L6.09229 7.95511H6.20468C6.18572 7.8478 6.18572 7.738 6.20468 7.63069C6.36545 3.79463 9.53283 0.767212 13.3855 0.767212ZM9.20506 12.7412C8.50338 12.7412 7.93454 13.3267 7.93454 14.0489C7.93454 14.7711 8.50338 15.3566 9.20506 15.3566C9.90675 15.3566 10.4756 14.7711 10.4756 14.0489L10.4657 13.8849C10.3873 13.2401 9.85278 12.7412 9.20506 12.7412ZM17.527 12.7412C16.8253 12.7412 16.2564 13.3267 16.2564 14.0489C16.2564 14.7711 16.8253 15.3566 17.527 15.3566C18.2286 15.3566 18.7975 14.7711 18.7975 14.0489C18.7975 13.3267 18.2286 12.7412 17.527 12.7412ZM13.3291 2.63949C10.5631 2.63949 8.32073 4.87413 8.32073 7.63069C8.33968 7.738 8.33968 7.8478 8.32073 7.95511H18.4001C18.3601 7.85153 18.3389 7.74167 18.3375 7.63069C18.3375 4.87413 16.0952 2.63949 13.3291 2.63949Z" fill="white"/>
</svg>
