<svg width="25" height="27" viewBox="0 0 25 27" fill="none" xmlns="http://www.w3.org/2000/svg">
<path d="M0.127411 23.3804V9.88037C0.127411 9.40537 0.233911 8.95537 0.446911 8.53037C0.659911 8.10537 0.953411 7.75537 1.32741 7.48037L10.3274 0.730371C10.8524 0.330371 11.4524 0.130371 12.1274 0.130371C12.8024 0.130371 13.4024 0.330371 13.9274 0.730371L22.9274 7.48037C23.3024 7.75537 23.5964 8.10537 23.8094 8.53037C24.0224 8.95537 24.1284 9.40537 24.1274 9.88037V23.3804C24.1274 24.2054 23.8334 24.9119 23.2454 25.4999C22.6574 26.0879 21.9514 26.3814 21.1274 26.3804H16.6274C16.2024 26.3804 15.8464 26.2364 15.5594 25.9484C15.2724 25.6604 15.1284 25.3044 15.1274 24.8804V17.3804C15.1274 16.9554 14.9834 16.5994 14.6954 16.3124C14.4074 16.0254 14.0514 15.8814 13.6274 15.8804H10.6274C10.2024 15.8804 9.84641 16.0244 9.55941 16.3124C9.27241 16.6004 9.12841 16.9564 9.12741 17.3804V24.8804C9.12741 25.3054 8.98341 25.6619 8.69541 25.9499C8.40741 26.2379 8.05141 26.3814 7.62741 26.3804H3.12741C2.30241 26.3804 1.59641 26.0869 1.00941 25.4999C0.422411 24.9129 0.128411 24.2064 0.127411 23.3804Z" fill="white"/>
</svg>
