<svg width="37" height="37" viewBox="0 0 37 37" fill="none" xmlns="http://www.w3.org/2000/svg">
<path d="M22.4024 6.31497V12.015H20.1524V6.31497C20.1524 5.90997 19.7924 5.71497 19.5524 5.71497C19.4774 5.71497 19.4024 5.72997 19.3274 5.75997L7.43241 10.245C6.63741 10.545 6.12741 11.295 6.12741 12.15V13.155C4.76241 14.175 3.87741 15.81 3.87741 17.655V12.15C3.87741 10.365 4.97241 8.77497 6.63741 8.14497L18.5474 3.64497C18.8774 3.52497 19.2224 3.46497 19.5524 3.46497C21.0524 3.46497 22.4024 4.67997 22.4024 6.31497Z" fill="white"/>
<path d="M32.3774 22.14V23.64C32.3774 24.045 32.0624 24.375 31.6424 24.39H29.4524C28.6574 24.39 27.9374 23.805 27.8774 23.025C27.8324 22.56 28.0124 22.125 28.3124 21.825C28.5824 21.54 28.9574 21.39 29.3624 21.39H31.6274C32.0624 21.405 32.3774 21.735 32.3774 22.14Z" fill="white"/>
<path d="M29.3474 19.815H30.8774C31.7024 19.815 32.3774 19.14 32.3774 18.315V17.655C32.3774 14.55 29.8424 12.015 26.7374 12.015H9.51741C8.24241 12.015 7.07241 12.435 6.12741 13.155C4.76241 14.175 3.87741 15.81 3.87741 17.655V27.75C3.87741 30.855 6.41241 33.39 9.51741 33.39H26.7374C29.8424 33.39 32.3774 30.855 32.3774 27.75V27.465C32.3774 26.64 31.7024 25.965 30.8774 25.965H29.5724C28.1324 25.965 26.7524 25.08 26.3774 23.685C26.0624 22.545 26.4374 21.45 27.1874 20.715C27.7424 20.145 28.5074 19.815 29.3474 19.815ZM21.1274 19.515H10.6274C10.0124 19.515 9.50241 19.005 9.50241 18.39C9.50241 17.775 10.0124 17.265 10.6274 17.265H21.1274C21.7424 17.265 22.2524 17.775 22.2524 18.39C22.2524 19.005 21.7424 19.515 21.1274 19.515Z" fill="white"/>
</svg>
