<svg width="17" height="18" viewBox="0 0 17 18" fill="none" xmlns="http://www.w3.org/2000/svg">
<path fill-rule="evenodd" clip-rule="evenodd" d="M0.417679 1.36735C0.446164 1.12786 0.530125 0.89832 0.662888 0.696973C0.795651 0.495625 0.973555 0.328026 1.18246 0.207498C1.39136 0.0869701 1.6255 0.0168373 1.86626 0.0026755C2.10702 -0.0114863 2.34777 0.0307132 2.56936 0.125919C3.68949 0.604773 6.19978 1.74284 9.38511 3.58126C12.5715 5.42073 14.8128 7.02711 15.7864 7.75594C16.6175 8.37929 16.6196 9.61545 15.7874 10.2409C14.8234 10.9655 12.6095 12.5508 9.38511 14.4135C6.15759 16.2762 3.67684 17.4005 2.56725 17.873C1.61165 18.2812 0.542139 17.6621 0.417679 16.6316C0.272124 15.4271 0 12.6921 0 8.99842C0 5.30682 0.27107 2.57293 0.417679 1.36735Z" fill="#8415E6"/>
</svg>
