<svg width="20" height="18" viewBox="0 0 20 18" fill="none" xmlns="http://www.w3.org/2000/svg">
<path d="M12.944 3.697C12.6628 3.97829 12.5048 4.35975 12.5048 4.7575C12.5048 5.15525 12.6628 5.53671 12.944 5.818L14.626 7.5H7C6.60218 7.5 6.22064 7.65804 5.93934 7.93934C5.65804 8.22064 5.5 8.60218 5.5 9C5.5 9.39782 5.65804 9.77936 5.93934 10.0607C6.22064 10.342 6.60218 10.5 7 10.5H14.626L12.944 12.182C12.8007 12.3204 12.6865 12.4859 12.6078 12.6689C12.5292 12.8519 12.4879 13.0487 12.4861 13.2479C12.4844 13.4471 12.5223 13.6446 12.5978 13.8289C12.6732 14.0133 12.7846 14.1808 12.9254 14.3216C13.0662 14.4624 13.2337 14.5738 13.4181 14.6492C13.6024 14.7247 13.7999 14.7626 13.9991 14.7609C14.1983 14.7591 14.3951 14.7178 14.5781 14.6392C14.7611 14.5605 14.9266 14.4463 15.065 14.303L19.308 10.061C19.5892 9.77971 19.7472 9.39825 19.7472 9.0005C19.7472 8.60275 19.5892 8.22129 19.308 7.94L15.065 3.697C14.7837 3.41579 14.4022 3.25782 14.0045 3.25782C13.6068 3.25782 13.2253 3.41579 12.944 3.697ZM0.5 16C0.5 16.3978 0.658035 16.7794 0.93934 17.0607C1.22064 17.342 1.60218 17.5 2 17.5C2.39782 17.5 2.77936 17.342 3.06066 17.0607C3.34196 16.7794 3.5 16.3978 3.5 16V2C3.5 1.60218 3.34196 1.22064 3.06066 0.93934C2.77936 0.658035 2.39782 0.5 2 0.5C1.60218 0.5 1.22064 0.658035 0.93934 0.93934C0.658035 1.22064 0.5 1.60218 0.5 2V16Z" fill="#F79009"/>
</svg>
