<svg width="31" height="31" viewBox="0 0 31 31" fill="none" xmlns="http://www.w3.org/2000/svg">
<path d="M13.8854 0.382324C15.0788 0.382579 16.2232 0.856852 17.0669 1.70082L28.6319 13.2658C29.5909 14.225 30.1297 15.5259 30.1297 16.8823C30.1297 18.2387 29.5909 19.5396 28.6319 20.4988L20.2439 28.8868C19.2847 29.8459 17.9838 30.3846 16.6274 30.3846C15.271 30.3846 13.9701 29.8459 13.0109 28.8868L1.44591 17.3218C0.601939 16.4781 0.127666 15.3337 0.127411 14.1403V6.38232C0.127411 4.79103 0.759552 3.2649 1.88477 2.13968C3.00999 1.01447 4.53611 0.382324 6.12741 0.382324H13.8854ZM8.37741 5.63232C7.62055 5.63208 6.89156 5.91793 6.33659 6.43257C5.78162 6.94721 5.44168 7.65259 5.38491 8.40732L5.37741 8.63232C5.37741 9.22567 5.55336 9.80569 5.883 10.299C6.21265 10.7924 6.68118 11.1769 7.22936 11.404C7.77754 11.631 8.38074 11.6904 8.96268 11.5747C9.54462 11.4589 10.0792 11.1732 10.4987 10.7536C10.9183 10.3341 11.204 9.79954 11.3198 9.2176C11.4355 8.63565 11.3761 8.03245 11.149 7.48427C10.922 6.9361 10.5375 6.46756 10.0441 6.13792C9.55077 5.80827 8.97075 5.63232 8.37741 5.63232Z" fill="white"/>
</svg>
