<svg width="31" height="31" viewBox="0 0 31 31" fill="none" xmlns="http://www.w3.org/2000/svg">
<path d="M18.1274 12.8843V10.6043C18.1274 9.53928 17.0624 8.81928 16.0724 9.20928L10.6274 11.3843V10.6643C10.6274 9.58428 9.53241 8.84928 8.54241 9.28428L1.94241 12.1043C0.847411 12.5843 0.127411 13.6643 0.127411 14.8643V27.8843C0.127411 29.5343 1.47741 30.8843 3.12741 30.8843H27.1274C28.7774 30.8843 30.1274 29.5343 30.1274 27.8843V12.8843H18.1274ZM10.6274 23.3843C10.6274 24.2093 9.95241 24.8843 9.12741 24.8843C8.30241 24.8843 7.62741 24.2093 7.62741 23.3843V20.3843C7.62741 19.5593 8.30241 18.8843 9.12741 18.8843C9.95241 18.8843 10.6274 19.5593 10.6274 20.3843V23.3843ZM16.6274 23.3843C16.6274 24.2093 15.9524 24.8843 15.1274 24.8843C14.3024 24.8843 13.6274 24.2093 13.6274 23.3843V20.3843C13.6274 19.5593 14.3024 18.8843 15.1274 18.8843C15.9524 18.8843 16.6274 19.5593 16.6274 20.3843V23.3843ZM22.6274 23.3843C22.6274 24.2093 21.9524 24.8843 21.1274 24.8843C20.3024 24.8843 19.6274 24.2093 19.6274 23.3843V20.3843C19.6274 19.5593 20.3024 18.8843 21.1274 18.8843C21.9524 18.8843 22.6274 19.5593 22.6274 20.3843V23.3843ZM27.3074 0.884277H25.4624C24.6974 0.884277 24.0674 1.45428 23.9774 2.20428L22.9274 10.6343H29.8274L28.7924 2.20428C28.7024 1.45428 28.0574 0.884277 27.3074 0.884277Z" fill="white"/>
</svg>
