<?xml version="1.0" encoding="UTF-8"?><svg id="a" xmlns="http://www.w3.org/2000/svg" viewBox="0 0 1131 173"><path d="M619.2,31l4,1.5,1.5,1.5.5,2,.5,9v13l-.5,46,1.5-2,7-11.5,3.5-5.5,8.5-12.5,6-8,5-6.5,6-7,4-4,2.5-3,4-3.5,5.5-4.5,2.5-1.5h4l4,2,1.5,2,.5,3-3,5-5.5,6-4,5-5.5,6.5-5.5,7-4,5.5-4.5,6-5,6.5.5,2.5,5.5,8.5,7,11,6.5,10,7.5,11.5,6,9.5,8.5,13v1.5l-3.5,1h-6l-3-3.5-5-8.5-7.5-11.5-5-8-7.5-11.5-8-12-2-1-2.5,2-3.5,5-6,11.5-5,11.5-4.5,12.5-1.5,6-.5,6.5h-12.5l-.5-2.5V36l1-2.5,4.5-2,2-.5Z"/><path d="M868.8,32h7.5l7.5,1,6.5,2.5,5,4.5,3.5,5,2,5.5,1,10.5v9l-1.5,7.5-3.5,6.5-4.5,5-2.5,2.5-7,5.5-7.5,5.5h-1l2.5,4.5,7.5,11.5,3.5,5.5,5.5,8.5,7.5,11.5,6,9.5v1l-4.5,2.5-1,.5h-3.5l-3-2-3.5-4-9-13.5-4.5-7-5.5-8.5-7-11-7.5-12-1-2.5,6-2.5,10.5-5.5,7-5,3-2.5,4-5.5,2-8,.5-2.5v-4.5l-1.5-7.5-2-5-3.5-3-1.5-.5h-7l-6.5,2-5.5,3-5.5,4.5-4,5.5-2.5,6-1,3.5-1.5,16v10l.5,23.5v36.5l-2,1h-12V35l1-1,2.5-.5h3.5l3.5,1.5,1.5,4.5.5,4.5,7-5.5,7.5-4.5,4-1.5,3.5-.5Z"/><path d="M472.8,30.5l1.5.5,4,9,9.5,19,5.5,11.5,5.5,11,4.5,9.5v1l5.5-.5h14.5l3.5.5-.5,2.5-2.5,7-1,1-13.5.5,4,8,11.5,23.5,5.5,11.5,1,3.5-4,1.5-5,2-2.5-.5-1.5-2.5-11.5-23-5.5-11.5-4-8-1-2.5-4,.5-10,3-9.5,4-8.5,4.5-6,4-9.5,7-6.5,6-9,9-5,6.5-3,4-2,1.5-7,1.5h-2.5l1-3,6.5-13.5,4-9,4-8,12-26,3.5-7.5,4-8.5,4-8,6.5-14,8-17,5-11,.5-.5ZM473.2,58.5l-4,8-4.5,9.5-13,28-5,10,.5,1.5,6.5-5,7.5-4.5,10.5-5.5,11-4,8-2.5-3-7-4-8-6-12.5-4-8h-.5Z"/><path d="M762.2,31l2,.5,4,9,11.5,23,5.5,11.5,8,16.5h19.5l3.5.5-.5,3-2.5,7-.5.5h-14l9,18,5.5,11.5,7.5,15.5v2.5l-5,1.5-4,1.5-2.5-.5-14.5-29-5.5-11.5-3-6.5v-1l-11.5,3-8,3-8,4-8,4.5-5.5,4-8,6-8,7.5-4,4-4.5,5.5-2,2.5-4.5,6-8,2-3,.5,1-3,4-8,7-15.5,4-8,6.5-14,5.5-12,3.5-7.5,7.5-15.5,6.5-14,8-17,5.5-11.5ZM762.8,59l-4,8-6,12.5-3,6.5-3.5,8-3.5,7-5,11-1.5,2.5.5,1,9-6.5,12.5-7,10-4,11.5-3.5.5-2-13-26-3.5-7.5h-1Z"/><path d="M65.8,31.5l2,.5,8.5,17,5.5,11.5,4.5,9.5,4,8,5,10.5,1.5,2.5v1l6-.5h17l.5,1-2.5,7.5-1.5,2.5-13.5.5,9.5,19.5,8.5,17.5,4,8.5-.5,1.5-9,3h-2l-4.5-8.5-5.5-11.5-9-18-4.5-9.5v-1l-11.5,3-10,4-11.5,6-6.5,4.5-8,6-5,4.5-4,3.5-4.5,4.5-2,3h-1l-1,2-4.5,6-2.5,3-10.5,2.5-.5-1.5,3-5.5,6.5-13.5,6.5-14,9-19,7-15,17-36,3.5-8,4-8,2-4.5.5-.5ZM66.2,59l-3.5,7-6.5,14-7.5,16-6.5,14-2,4v1l2.5-1,4.5-3.5,10-6,10.5-5,16.5-5.5-4.5-9.5-5.5-11-6-13-1-1.5h-1Z"/><path d="M975.8,31l2,.5,4.5,9.5,10.5,21,5.5,11.5,5,10.5,3.5,7v1l6-.5h13l4.5.5-.5,2.5-3,8h-14l14,29,8,16.5v2l-6.5,2-3,1h-2l-4-8-5.5-11.5-11.5-23-2.5-5.5-4,.5-10,3-8.5,3.5-8.5,4.5-8.5,5.5-6,4.5-6.5,5.5-7,6.5-9,11-2,3-3,2.5-8,2-2-.5,4-8,8.5-18,7.5-16,4.5-10,4-8,9.5-20.5,6.5-13.5,7.5-16.5,5.5-11.5,1.5-3.5ZM976.8,58.5l-4,8-9.5,20-5.5,12-6.5,14-1,2.5,2.5-1,5.5-4,10-6,9.5-4.5,10.5-3.5,5.5-1.5.5-1.5-11-22-5.5-11.5-1-1Z"/><path d="M119.8,33.5h86.5l1,.5-.5,3-4.5,11.5h-34.5v108l-.5.5h-14V48.5h-40l1.5-4.5,4-10,1-.5Z"/><path d="M1034.8,33.5h87l.5,2-5,12-1,1h-33.5v107l-1,1.5h-13l-.5-.5V48.5h-40l.5-2.5,3-7.5,2-4.5,1-.5Z"/><path d="M255.2,33h13l1,.5v108.5h51.5v14.5h-65.5l-.5-.5V33.5l.5-.5Z"/><path d="M336.8,33h10l3.5.5.5,3-.5,105.5,17-.5h32.5l1.5.5v14l-.5.5h-64.5V33.5l.5-.5Z"/><path d="M218.2,33h10l4,.5v122.5l-.5.5h-14V33.5l.5-.5Z"/><path d="M217.8,6.5l15,.5v18.5l-.5.5h-15.5l-.5-7.5v-10l.5-1.5,1-.5Z"/></svg>